<?xml version="1.0" encoding="UTF-8"?>
<svg id="Capa_2" data-name="Capa 2" xmlns="http://www.w3.org/2000/svg" xmlns:xlink="http://www.w3.org/1999/xlink" viewBox="0 0 2824.01 216.8">
  <defs>
    <style>
      .cls-1 {
        fill: #28e8da;
      }

      .cls-2 {
        fill: url(#Degradado_sin_nombre_4);
      }
    </style>
    <linearGradient id="Degradado_sin_nombre_4" data-name="Degradado sin nombre 4" x1="156.28" y1="-.27" x2="156.28" y2="312.29" gradientUnits="userSpaceOnUse">
      <stop offset="0" stop-color="#ff00af"/>
      <stop offset=".06" stop-color="#d32eb7"/>
      <stop offset=".2" stop-color="#68a2cd"/>
      <stop offset=".28" stop-color="#28e8da"/>
      <stop offset=".48" stop-color="#90ff8b"/>
      <stop offset=".65" stop-color="#fff645"/>
    </linearGradient>
  </defs>
  <g id="all">
    <g>
      <path class="cls-2" d="M141.14,201.46c-8.84,.18-17.63-.49-26.14-2.01-44.56-7.95-82.06-37.88-95.55-76.25-3.13-8.9-4.95-18.21-5.42-27.68-1.22-24.43,6.66-46.45,22.18-62,14.75-14.77,34.62-20.62,53.15-15.64,.08,.02,.15,.04,.23,.07-5.25,3.73-9.85,8.01-13.75,12.79-7.53,9.23-12.06,20.34-12.75,31.28-.79,12.29,3.24,24.26,11.05,32.84,7.07,7.77,17.07,12.51,27.42,13,.59,.03,1.18,.04,1.77,.04,9.9,0,19.81-3.97,26.81-10.8,10.22-9.99,14.54-26.32,11.28-42.61h0c-2.77-13.83-10.37-26.35-21.42-35.78,6.08-1.82,12.61-3.11,19.56-3.84,.76-.08,1.52-.15,2.26-.21,3.83-.3,6.69-3.64,6.39-7.48-.3-3.83-3.64-6.71-7.48-6.39-.88,.07-1.77,.15-2.65,.24-11.88,1.25-22.8,3.96-32.52,8.08l-.08-.04-.11,.05c-3.99-1.96-8.15-3.53-12.41-4.67-23.4-6.29-48.3,.91-66.61,19.25C8.04,42.06-1.27,67.81,.14,96.22c.54,10.81,2.62,21.44,6.19,31.6,15.12,43.02,56.82,76.52,106.23,85.33,8.4,1.5,17.06,2.26,25.76,2.26,1.03,0,2.07-.01,3.1-.03,3.84-.08,6.89-3.26,6.81-7.1-.08-3.84-3.29-6.88-7.1-6.81ZM104.92,24.81c11.97,7.69,20.23,19.34,22.85,32.41,2.35,11.73-.47,23.19-7.36,29.93-4.7,4.59-11.5,7.14-18.18,6.82-6.61-.32-13.26-3.48-17.81-8.47-5.21-5.72-7.99-14.16-7.45-22.59,.51-8.07,3.94-16.37,9.65-23.38,4.76-5.85,10.9-10.79,18.29-14.72Zm181.26-1.11C267.88,5.36,242.98-1.84,219.57,4.45c-4.26,1.15-8.42,2.71-12.41,4.67l-.11-.05-.08,.04c-9.72-4.12-20.64-6.83-32.51-8.08-.9-.1-1.78-.17-2.66-.24-3.82-.31-7.18,2.56-7.48,6.39-.3,3.83,2.56,7.18,6.39,7.48,.75,.06,1.5,.12,2.28,.21,6.95,.73,13.47,2.02,19.55,3.84-11.05,9.42-18.64,21.95-21.42,35.78-3.27,16.29,1.05,32.62,11.28,42.61,7,6.83,16.91,10.8,26.8,10.8,.59,0,1.18-.01,1.76-.04,10.36-.5,20.35-5.24,27.43-13,7.81-8.57,11.84-20.54,11.05-32.84-.7-10.94-5.22-22.05-12.75-31.28-3.9-4.79-8.5-9.06-13.75-12.8,.08-.02,.15-.04,.23-.07,18.54-4.98,38.41,.87,53.15,15.64,15.52,15.55,23.4,37.57,22.18,62-.47,9.47-2.3,18.78-5.42,27.68-13.49,38.37-50.99,68.3-95.55,76.25-8.5,1.52-17.3,2.2-26.14,2.01-.05,0-.1,0-.15,0-3.77,0-6.87,3.02-6.95,6.81-.08,3.84,2.97,7.02,6.81,7.1,1.04,.02,2.07,.03,3.1,.03,8.71,0,17.36-.76,25.76-2.26,49.41-8.81,91.11-42.31,106.23-85.33,3.57-10.16,5.65-20.79,6.19-31.6,1.41-28.4-7.9-54.16-26.23-72.52Zm-60.26,15.84c5.71,7,9.14,15.3,9.65,23.38,.54,8.42-2.25,16.87-7.45,22.58-4.54,4.99-11.2,8.16-17.81,8.47-6.68,.33-13.48-2.23-18.18-6.81-6.89-6.73-9.71-18.2-7.36-29.93,2.62-13.08,10.88-24.72,22.85-32.41,7.39,3.93,13.53,8.87,18.3,14.72Z"/>
      <g>
        <path class="cls-1" d="M499.08,129.17h59.55c9.92,0,17.96-8.04,17.96-17.96v-9.21c0-9.92-8.04-17.96-17.96-17.96h-59.55c-9.92,0-17.96-8.04-17.96-17.96h0c0-9.92,8.04-17.96,17.96-17.96h72.44c9.92,0,17.96-8.04,17.96-17.96v-11.35c0-9.92-8.04-17.96-17.96-17.96h-132.29c-9.92,0-17.96,8.04-17.96,17.96V197.77c0,9.92,8.04,17.96,17.96,17.96h136.28c9.92,0,17.96-8.04,17.96-17.96v-11.35c0-9.92-8.04-17.96-17.96-17.96h-76.43c-9.92,0-17.96-8.04-17.96-17.96v-3.38c0-9.92,8.04-17.96,17.96-17.96Z"/>
        <rect class="cls-1" x="660.38" y="105.54" width="89.63" height="45.12" rx="17.96" ry="17.96"/>
        <path class="cls-1" d="M981.44,10.38c-14.33-6.34-31.31-9.52-50.95-9.52h-79.96c-9.92,0-17.96,8.04-17.96,17.96V197.77c0,9.92,8.04,17.96,17.96,17.96h24.86c9.92,0,17.96-8.04,17.96-17.96v-20.26c0-9.92,8.04-17.96,17.96-17.96h19.18c19.65,0,36.63-3.22,50.95-9.67,14.32-6.45,25.32-15.55,33-27.32,7.67-11.76,11.51-25.94,11.51-42.51s-3.84-30.23-11.51-42.2c-7.67-11.97-18.68-21.13-33-27.47Zm-26.09,92.85c-6.34,5.42-15.86,8.13-28.55,8.13h-15.5c-9.92,0-17.96-8.04-17.96-17.96v-26.7c0-9.92,8.04-17.96,17.96-17.96h15.5c12.69,0,22.2,2.81,28.55,8.44,6.34,5.63,9.51,13.25,9.51,22.87s-3.17,17.76-9.51,23.17Z"/>
        <path class="cls-1" d="M1179.57,129.17h59.54c9.92,0,17.96-8.04,17.96-17.96v-9.21c0-9.92-8.04-17.96-17.96-17.96h-59.54c-9.92,0-17.96-8.04-17.96-17.96h0c0-9.92,8.04-17.96,17.96-17.96h72.44c9.92,0,17.96-8.04,17.96-17.96v-11.35c0-9.92-8.04-17.96-17.96-17.96h-132.29c-9.92,0-17.96,8.04-17.96,17.96V197.77c0,9.92,8.04,17.96,17.96,17.96h136.28c9.92,0,17.96-8.04,17.96-17.96v-11.35c0-9.92-8.04-17.96-17.96-17.96h-76.43c-9.92,0-17.96-8.04-17.96-17.96v-3.38c0-9.92,8.04-17.96,17.96-17.96Z"/>
        <path class="cls-1" d="M1351.46,49.06h30.08c9.92,0,17.96,8.04,17.96,17.96V197.77c0,9.92,8.04,17.96,17.96,17.96h24.86c9.92,0,17.96-8.04,17.96-17.96V67.01c0-9.92,8.04-17.96,17.96-17.96h29.77c9.92,0,17.96-8.04,17.96-17.96v-12.28c0-9.92-8.04-17.96-17.96-17.96h-156.54c-9.92,0-17.96,8.04-17.96,17.96v12.28c0,9.92,8.04,17.96,17.96,17.96Z"/>
        <path class="cls-1" d="M1743.88,10.38c-14.33-6.34-31.31-9.52-50.95-9.52h-79.96c-9.92,0-17.96,8.04-17.96,17.96V197.77c0,9.92,8.04,17.96,17.96,17.96h24.86c9.92,0,17.96-8.04,17.96-17.96v-20.26c0-9.92,8.04-17.96,17.96-17.96h19.18c19.64,0,36.63-3.22,50.95-9.67,14.32-6.45,25.32-15.55,33-27.32,7.67-11.76,11.51-25.94,11.51-42.51s-3.84-30.23-11.51-42.2c-7.67-11.97-18.68-21.13-33-27.47Zm-26.09,92.85c-6.35,5.42-15.86,8.13-28.55,8.13h-15.5c-9.92,0-17.96-8.04-17.96-17.96v-26.7c0-9.92,8.04-17.96,17.96-17.96h15.5c12.69,0,22.2,2.81,28.55,8.44,6.34,5.63,9.51,13.25,9.51,22.87s-3.18,17.76-9.51,23.17Z"/>
        <path class="cls-1" d="M1907.02,.87h-24.86c-9.92,0-17.96,8.04-17.96,17.96V197.77c0,9.92,8.04,17.96,17.96,17.96h127.07c9.92,0,17.96-8.04,17.96-17.96v-12.28c0-9.92-8.04-17.96-17.96-17.96h-66.3c-9.92,0-17.96-8.04-17.96-17.96V18.82c0-9.92-8.04-17.96-17.96-17.96Z"/>
        <path class="cls-1" d="M2161.82,11.55l-79.02,179.01c-5.23,11.85,3.45,25.16,16.4,25.16h22.38c7.32,0,13.91-4.45,16.63-11.25l7.85-19.55c2.73-6.8,9.31-11.25,16.63-11.25h66.63c7.32,0,13.91,4.45,16.63,11.25l7.85,19.55c2.73,6.8,9.31,11.25,16.63,11.25h23.57c12.96,0,21.64-13.33,16.39-25.18l-79.28-179.01c-2.87-6.48-9.3-10.67-16.39-10.67h-36.51c-7.1,0-13.53,4.19-16.4,10.69Zm12.02,104.15l13.06-32.54c3.3-8.21,14.92-8.21,18.21,0l13.06,32.54c2.59,6.45-2.16,13.47-9.11,13.47h-26.12c-6.95,0-11.7-7.02-9.11-13.47Z"/>
        <path class="cls-1" d="M2449.25,65.07c5.06-5.26,11.17-9.28,18.31-12.06,7.15-2.78,14.99-4.17,23.53-4.17,9.73,0,18.66,2.08,26.8,6.25,4.11,2.11,8.04,4.69,11.8,7.76,6.66,5.44,16.3,5.19,22.68-.58l12.14-10.98c7.77-7.03,7.67-19.33-.3-26.12-7.24-6.17-15.39-11.24-24.42-15.2-15.19-6.65-32.41-9.98-51.67-9.98-16.48,0-31.67,2.63-45.56,7.89-13.9,5.26-26.01,12.71-36.33,22.34-10.32,9.63-18.36,21.1-24.12,34.4-5.76,13.3-8.64,27.9-8.64,43.78s2.88,30.48,8.64,43.78c5.76,13.3,13.8,24.77,24.12,34.4,10.32,9.63,22.43,17.08,36.33,22.34,13.89,5.26,29.08,7.89,45.56,7.89,19.26,0,36.48-3.38,51.67-10.12,9.05-4.02,17.21-9.14,24.46-15.35,7.95-6.8,8.03-19.08,.28-26.1l-12.02-10.88c-6.42-5.8-16.13-6.02-22.78-.49-3.76,3.13-7.7,5.74-11.82,7.85-8.14,4.17-17.08,6.25-26.8,6.25-8.54,0-16.38-1.39-23.53-4.17-7.15-2.78-13.25-6.8-18.31-12.06-5.06-5.26-9.04-11.56-11.91-18.91-2.88-7.34-4.32-15.49-4.32-24.42s1.44-17.07,4.32-24.42c2.88-7.34,6.85-13.65,11.91-18.91Z"/>
        <path class="cls-1" d="M2711.67,150.5v-3.38c0-9.92,8.04-17.96,17.96-17.96h59.54c9.92,0,17.96-8.04,17.96-17.96v-9.21c0-9.92-8.04-17.96-17.96-17.96h-59.54c-9.92,0-17.96-8.04-17.96-17.96h0c0-9.92,8.04-17.96,17.96-17.96h72.44c9.92,0,17.96-8.04,17.96-17.96v-11.35c0-9.92-8.04-17.96-17.96-17.96h-132.29c-9.92,0-17.96,8.04-17.96,17.96V197.77c0,9.92,8.04,17.96,17.96,17.96h136.28c9.92,0,17.96-8.04,17.96-17.96v-11.35c0-9.92-8.04-17.96-17.96-17.96h-76.43c-9.92,0-17.96-8.04-17.96-17.96Z"/>
      </g>
    </g>
  </g>
</svg>